<svg width="48" height="48" viewBox="0 0 48 48" fill="none" xmlns="http://www.w3.org/2000/svg">
<path d="M44 18.98H34.42L25.66 5.86002C25.28 5.30002 24.64 5.02002 24 5.02002C23.36 5.02002 22.72 5.30002 22.34 5.88002L13.58 18.98H4C2.9 18.98 2 19.88 2 20.98C2 21.16 2.02 21.34 2.08 21.52L7.16 40.06C7.62 41.74 9.16 42.98 11 42.98H37C38.84 42.98 40.38 41.74 40.86 40.06L45.94 21.52L46 20.98C46 19.88 45.1 18.98 44 18.98ZM24 10.58L29.6 18.98H18.4L24 10.58ZM37 38.98L11.02 39L6.62 22.98H41.4L37 38.98ZM24 26.98C21.8 26.98 20 28.78 20 30.98C20 33.18 21.8 34.98 24 34.98C26.2 34.98 28 33.18 28 30.98C28 28.78 26.2 26.98 24 26.98Z" fill="#20293A"/>
</svg>
