<svg width="567" height="74" viewBox="0 0 567 74" fill="none" xmlns="http://www.w3.org/2000/svg">
<path d="M57.7168 24.9297C57.7168 27.4688 57.4889 29.7799 57.0332 31.8633C56.61 33.9141 55.9264 35.8021 54.9824 37.5273C54.0384 39.2526 52.8177 40.8477 51.3203 42.3125C49.8229 43.7773 48.0163 45.1771 45.9004 46.5117L57.5215 67.2148L35.5488 71.5117L28.0293 50.7109L21.9746 50.9062L21.0957 71.2188H0.0996094C0.26237 63.7969 0.408854 56.4076 0.539062 49.0508C0.701823 41.694 0.880859 34.3047 1.07617 26.8828C1.14128 23.1393 1.20638 19.4284 1.27148 15.75C1.33659 12.0716 1.4668 8.36068 1.66211 4.61719C3.94076 3.77083 6.18685 3.07096 8.40039 2.51758C10.6139 1.96419 12.8275 1.54102 15.041 1.24805C17.2871 0.922526 19.5495 0.710938 21.8281 0.613281C24.1393 0.483073 26.4993 0.417969 28.9082 0.417969C32.6191 0.417969 36.1999 0.938802 39.6504 1.98047C43.1335 2.98958 46.2096 4.51953 48.8789 6.57031C51.5482 8.62109 53.6803 11.1764 55.2754 14.2363C56.903 17.2962 57.7168 20.8607 57.7168 24.9297ZM35.8418 26.4922C35.8418 25.125 35.6465 23.8717 35.2559 22.7324C34.8978 21.5931 34.3444 20.6165 33.5957 19.8027C32.8796 18.9564 31.9681 18.3053 30.8613 17.8496C29.7871 17.3613 28.5176 17.1172 27.0527 17.1172C26.4017 17.1172 25.7669 17.166 25.1484 17.2637C24.5299 17.3288 23.9277 17.4427 23.3418 17.6055L22.5605 35.7695H23.7324C25.1322 35.7695 26.5482 35.5905 27.9805 35.2324C29.4453 34.8743 30.7474 34.321 31.8867 33.5723C33.0586 32.8236 34.0026 31.8633 34.7188 30.6914C35.4674 29.5195 35.8418 28.1198 35.8418 26.4922ZM115.139 32.5469C115.139 35.3789 114.943 38.2109 114.553 41.043C108.986 41.401 103.452 41.987 97.9512 42.8008C92.4499 43.582 86.9486 44.3633 81.4473 45.1445C82.2936 47.4883 83.612 49.36 85.4023 50.7598C87.2253 52.1595 89.39 52.8594 91.8965 52.8594C93.1986 52.8594 94.6146 52.6152 96.1445 52.127C97.707 51.6387 99.2533 51.0365 100.783 50.3203C102.313 49.5716 103.778 48.7741 105.178 47.9277C106.577 47.0814 107.782 46.3164 108.791 45.6328L106.447 67.8008C105.178 68.7773 103.794 69.6074 102.297 70.291C100.832 70.9746 99.3021 71.528 97.707 71.9512C96.112 72.3743 94.5007 72.6836 92.873 72.8789C91.2454 73.0742 89.6504 73.1719 88.0879 73.1719C84.8652 73.1719 81.9193 72.7324 79.25 71.8535C76.5807 70.9746 74.1556 69.7539 71.9746 68.1914C69.8262 66.5964 67.9382 64.7246 66.3105 62.5762C64.6829 60.4277 63.332 58.084 62.2578 55.5449C61.1836 53.0059 60.3698 50.3203 59.8164 47.4883C59.263 44.6562 58.9863 41.7917 58.9863 38.8945C58.9863 35.8672 59.263 32.8398 59.8164 29.8125C60.3698 26.7852 61.1999 23.8717 62.3066 21.0723C63.446 18.2728 64.862 15.6849 66.5547 13.3086C68.2799 10.8997 70.2819 8.80013 72.5605 7.00977C74.8392 5.2194 77.4108 3.81966 80.2754 2.81055C83.1725 1.80143 86.3626 1.29688 89.8457 1.29688C92.7428 1.29688 95.3796 1.70378 97.7559 2.51758C100.165 3.29883 102.297 4.4056 104.152 5.83789C106.04 7.23763 107.668 8.91406 109.035 10.8672C110.435 12.8203 111.574 14.9688 112.453 17.3125C113.365 19.6237 114.032 22.0814 114.455 24.6855C114.911 27.2572 115.139 29.8776 115.139 32.5469ZM95.6074 30.0078C95.6074 29.0964 95.5098 28.1686 95.3145 27.2246C95.1191 26.248 94.7936 25.3691 94.3379 24.5879C93.9147 23.8066 93.3451 23.1719 92.6289 22.6836C91.9128 22.1628 91.0176 21.9023 89.9434 21.9023C88.6413 21.9023 87.4857 22.2604 86.4766 22.9766C85.5 23.6602 84.6536 24.5391 83.9375 25.6133C83.2214 26.6549 82.6354 27.7943 82.1797 29.0312C81.724 30.2682 81.3822 31.4076 81.1543 32.4492L95.6074 31.082V30.0078ZM177.199 3.54297L159.328 69.5586L135.109 70.9258L113.137 7.15625L136.281 5.00781L145.656 42.1172L154.738 2.07812L177.199 3.54297ZM204.201 3.25L200.783 69.7539L180.178 70.8281L178.225 4.61719L204.201 3.25ZM268.117 3.54297L250.246 69.5586L226.027 70.9258L204.055 7.15625L227.199 5.00781L236.574 42.1172L245.656 2.07812L268.117 3.54297ZM321.584 32.5469C321.584 35.3789 321.389 38.2109 320.998 41.043C315.432 41.401 309.898 41.987 304.396 42.8008C298.895 43.582 293.394 44.3633 287.893 45.1445C288.739 47.4883 290.057 49.36 291.848 50.7598C293.671 52.1595 295.835 52.8594 298.342 52.8594C299.644 52.8594 301.06 52.6152 302.59 52.127C304.152 51.6387 305.699 51.0365 307.229 50.3203C308.758 49.5716 310.223 48.7741 311.623 47.9277C313.023 47.0814 314.227 46.3164 315.236 45.6328L312.893 67.8008C311.623 68.7773 310.24 69.6074 308.742 70.291C307.277 70.9746 305.747 71.528 304.152 71.9512C302.557 72.3743 300.946 72.6836 299.318 72.8789C297.691 73.0742 296.096 73.1719 294.533 73.1719C291.311 73.1719 288.365 72.7324 285.695 71.8535C283.026 70.9746 280.601 69.7539 278.42 68.1914C276.271 66.5964 274.383 64.7246 272.756 62.5762C271.128 60.4277 269.777 58.084 268.703 55.5449C267.629 53.0059 266.815 50.3203 266.262 47.4883C265.708 44.6562 265.432 41.7917 265.432 38.8945C265.432 35.8672 265.708 32.8398 266.262 29.8125C266.815 26.7852 267.645 23.8717 268.752 21.0723C269.891 18.2728 271.307 15.6849 273 13.3086C274.725 10.8997 276.727 8.80013 279.006 7.00977C281.285 5.2194 283.856 3.81966 286.721 2.81055C289.618 1.80143 292.808 1.29688 296.291 1.29688C299.188 1.29688 301.825 1.70378 304.201 2.51758C306.61 3.29883 308.742 4.4056 310.598 5.83789C312.486 7.23763 314.113 8.91406 315.48 10.8672C316.88 12.8203 318.02 14.9688 318.898 17.3125C319.81 19.6237 320.477 22.0814 320.9 24.6855C321.356 27.2572 321.584 29.8776 321.584 32.5469ZM302.053 30.0078C302.053 29.0964 301.955 28.1686 301.76 27.2246C301.564 26.248 301.239 25.3691 300.783 24.5879C300.36 23.8066 299.79 23.1719 299.074 22.6836C298.358 22.1628 297.463 21.9023 296.389 21.9023C295.087 21.9023 293.931 22.2604 292.922 22.9766C291.945 23.6602 291.099 24.5391 290.383 25.6133C289.667 26.6549 289.081 27.7943 288.625 29.0312C288.169 30.2682 287.827 31.4076 287.6 32.4492L302.053 31.082V30.0078ZM401.564 24.9297C401.564 27.4688 401.337 29.7799 400.881 31.8633C400.458 33.9141 399.774 35.8021 398.83 37.5273C397.886 39.2526 396.665 40.8477 395.168 42.3125C393.671 43.7773 391.864 45.1771 389.748 46.5117L401.369 67.2148L379.396 71.5117L371.877 50.7109L365.822 50.9062L364.943 71.2188H343.947C344.11 63.7969 344.257 56.4076 344.387 49.0508C344.549 41.694 344.729 34.3047 344.924 26.8828C344.989 23.1393 345.054 19.4284 345.119 15.75C345.184 12.0716 345.314 8.36068 345.51 4.61719C347.788 3.77083 350.035 3.07096 352.248 2.51758C354.462 1.96419 356.675 1.54102 358.889 1.24805C361.135 0.922526 363.397 0.710938 365.676 0.613281C367.987 0.483073 370.347 0.417969 372.756 0.417969C376.467 0.417969 380.048 0.938802 383.498 1.98047C386.981 2.98958 390.057 4.51953 392.727 6.57031C395.396 8.62109 397.528 11.1764 399.123 14.2363C400.751 17.2962 401.564 20.8607 401.564 24.9297ZM379.689 26.4922C379.689 25.125 379.494 23.8717 379.104 22.7324C378.745 21.5931 378.192 20.6165 377.443 19.8027C376.727 18.9564 375.816 18.3053 374.709 17.8496C373.635 17.3613 372.365 17.1172 370.9 17.1172C370.249 17.1172 369.615 17.166 368.996 17.2637C368.378 17.3288 367.775 17.4427 367.189 17.6055L366.408 35.7695H367.58C368.98 35.7695 370.396 35.5905 371.828 35.2324C373.293 34.8743 374.595 34.321 375.734 33.5723C376.906 32.8236 377.85 31.8633 378.566 30.6914C379.315 29.5195 379.689 28.1198 379.689 26.4922ZM458.986 32.5469C458.986 35.3789 458.791 38.2109 458.4 41.043C452.834 41.401 447.3 41.987 441.799 42.8008C436.298 43.582 430.796 44.3633 425.295 45.1445C426.141 47.4883 427.46 49.36 429.25 50.7598C431.073 52.1595 433.238 52.8594 435.744 52.8594C437.046 52.8594 438.462 52.6152 439.992 52.127C441.555 51.6387 443.101 51.0365 444.631 50.3203C446.161 49.5716 447.626 48.7741 449.025 47.9277C450.425 47.0814 451.63 46.3164 452.639 45.6328L450.295 67.8008C449.025 68.7773 447.642 69.6074 446.145 70.291C444.68 70.9746 443.15 71.528 441.555 71.9512C439.96 72.3743 438.348 72.6836 436.721 72.8789C435.093 73.0742 433.498 73.1719 431.936 73.1719C428.713 73.1719 425.767 72.7324 423.098 71.8535C420.428 70.9746 418.003 69.7539 415.822 68.1914C413.674 66.5964 411.786 64.7246 410.158 62.5762C408.531 60.4277 407.18 58.084 406.105 55.5449C405.031 53.0059 404.217 50.3203 403.664 47.4883C403.111 44.6562 402.834 41.7917 402.834 38.8945C402.834 35.8672 403.111 32.8398 403.664 29.8125C404.217 26.7852 405.048 23.8717 406.154 21.0723C407.294 18.2728 408.71 15.6849 410.402 13.3086C412.128 10.8997 414.13 8.80013 416.408 7.00977C418.687 5.2194 421.258 3.81966 424.123 2.81055C427.02 1.80143 430.21 1.29688 433.693 1.29688C436.59 1.29688 439.227 1.70378 441.604 2.51758C444.012 3.29883 446.145 4.4056 448 5.83789C449.888 7.23763 451.516 8.91406 452.883 10.8672C454.283 12.8203 455.422 14.9688 456.301 17.3125C457.212 19.6237 457.88 22.0814 458.303 24.6855C458.758 27.2572 458.986 29.8776 458.986 32.5469ZM439.455 30.0078C439.455 29.0964 439.357 28.1686 439.162 27.2246C438.967 26.248 438.641 25.3691 438.186 24.5879C437.762 23.8066 437.193 23.1719 436.477 22.6836C435.76 22.1628 434.865 21.9023 433.791 21.9023C432.489 21.9023 431.333 22.2604 430.324 22.9766C429.348 23.6602 428.501 24.5391 427.785 25.6133C427.069 26.6549 426.483 27.7943 426.027 29.0312C425.572 30.2682 425.23 31.4076 425.002 32.4492L439.455 31.082V30.0078ZM516.701 32.5469C516.701 35.3789 516.506 38.2109 516.115 41.043C510.549 41.401 505.015 41.987 499.514 42.8008C494.012 43.582 488.511 44.3633 483.01 45.1445C483.856 47.4883 485.174 49.36 486.965 50.7598C488.788 52.1595 490.952 52.8594 493.459 52.8594C494.761 52.8594 496.177 52.6152 497.707 52.127C499.27 51.6387 500.816 51.0365 502.346 50.3203C503.876 49.5716 505.34 48.7741 506.74 47.9277C508.14 47.0814 509.344 46.3164 510.354 45.6328L508.01 67.8008C506.74 68.7773 505.357 69.6074 503.859 70.291C502.395 70.9746 500.865 71.528 499.27 71.9512C497.674 72.3743 496.063 72.6836 494.436 72.8789C492.808 73.0742 491.213 73.1719 489.65 73.1719C486.428 73.1719 483.482 72.7324 480.812 71.8535C478.143 70.9746 475.718 69.7539 473.537 68.1914C471.389 66.5964 469.501 64.7246 467.873 62.5762C466.245 60.4277 464.895 58.084 463.82 55.5449C462.746 53.0059 461.932 50.3203 461.379 47.4883C460.826 44.6562 460.549 41.7917 460.549 38.8945C460.549 35.8672 460.826 32.8398 461.379 29.8125C461.932 26.7852 462.762 23.8717 463.869 21.0723C465.008 18.2728 466.424 15.6849 468.117 13.3086C469.842 10.8997 471.844 8.80013 474.123 7.00977C476.402 5.2194 478.973 3.81966 481.838 2.81055C484.735 1.80143 487.925 1.29688 491.408 1.29688C494.305 1.29688 496.942 1.70378 499.318 2.51758C501.727 3.29883 503.859 4.4056 505.715 5.83789C507.603 7.23763 509.23 8.91406 510.598 10.8672C511.997 12.8203 513.137 14.9688 514.016 17.3125C514.927 19.6237 515.594 22.0814 516.018 24.6855C516.473 27.2572 516.701 29.8776 516.701 32.5469ZM497.17 30.0078C497.17 29.0964 497.072 28.1686 496.877 27.2246C496.682 26.248 496.356 25.3691 495.9 24.5879C495.477 23.8066 494.908 23.1719 494.191 22.6836C493.475 22.1628 492.58 21.9023 491.506 21.9023C490.204 21.9023 489.048 22.2604 488.039 22.9766C487.062 23.6602 486.216 24.5391 485.5 25.6133C484.784 26.6549 484.198 27.7943 483.742 29.0312C483.286 30.2682 482.945 31.4076 482.717 32.4492L497.17 31.082V30.0078ZM566.115 2.56641C565.92 5.6263 565.741 8.65365 565.578 11.6484C565.415 14.6432 565.204 17.6706 564.943 20.7305L544.24 21.8047V27.957H562.209L561.232 43.0938L544.143 43.582L544.24 70.5352L519.533 71.0234L521.096 2.56641H566.115Z" fill="white"/>
</svg>
