<svg width="1032" height="208" viewBox="0 0 1032 208" fill="none" xmlns="http://www.w3.org/2000/svg">
<path d="M115.98 93.0469C115.98 101.966 114.418 109.779 111.293 116.484C108.233 123.125 104.001 128.659 98.5977 133.086C93.2591 137.513 86.9766 140.833 79.75 143.047C72.5885 145.26 64.8737 146.367 56.6055 146.367C53.4154 146.367 49.8997 145.944 46.0586 145.098C42.2826 144.251 38.4414 143.21 34.5352 141.973C30.6289 140.671 26.8529 139.303 23.207 137.871C19.6263 136.374 16.4362 134.974 13.6367 133.672L17.9336 93.4375C23.4674 96.7578 29.5872 99.2969 36.293 101.055C43.0638 102.747 49.7044 103.594 56.2148 103.594C57.4518 103.594 58.9492 103.561 60.707 103.496C62.4648 103.366 64.125 103.073 65.6875 102.617C67.3151 102.096 68.6823 101.348 69.7891 100.371C70.8958 99.3945 71.4492 97.9948 71.4492 96.1719C71.4492 94.9349 71.0586 93.8932 70.2773 93.0469C69.4961 92.1354 68.487 91.4193 67.25 90.8984C66.013 90.3125 64.6133 89.8893 63.0508 89.6289C61.4883 89.3034 59.9583 89.0755 58.4609 88.9453C56.9635 88.8151 55.5638 88.75 54.2617 88.75C52.9596 88.75 51.918 88.75 51.1367 88.75C45.5378 88.75 40.4271 87.7734 35.8047 85.8203C31.2474 83.8672 27.3086 81.1654 23.9883 77.7148C20.7331 74.1992 18.194 70.0651 16.3711 65.3125C14.5482 60.4948 13.6367 55.2865 13.6367 49.6875C13.6367 42.0052 15.1667 35.1367 18.2266 29.082C21.3516 22.9622 25.4857 17.7865 30.6289 13.5547C35.8372 9.25781 41.7943 5.97005 48.5 3.69141C55.2057 1.41276 62.1393 0.273438 69.3008 0.273438C72.4909 0.273438 75.7786 0.403646 79.1641 0.664062C82.5495 0.859375 85.9023 1.25 89.2227 1.83594C92.6081 2.42188 95.8958 3.17057 99.0859 4.08203C102.276 4.99349 105.303 6.13281 108.168 7.5L104.457 47.1484C100.03 45.651 95.375 44.4141 90.4922 43.4375C85.6745 42.3958 80.9544 41.875 76.332 41.875C75.4857 41.875 74.3789 41.9076 73.0117 41.9727C71.7096 41.9727 70.3099 42.0703 68.8125 42.2656C67.3802 42.3958 65.9154 42.6237 64.418 42.9492C62.9206 43.2747 61.5859 43.7305 60.4141 44.3164C59.2422 44.8372 58.2982 45.5534 57.582 46.4648C56.8659 47.3763 56.5404 48.4505 56.6055 49.6875C56.6706 51.1198 57.1914 52.2917 58.168 53.2031C59.2096 54.0495 60.5117 54.7331 62.0742 55.2539C63.7018 55.7096 65.4596 56.0352 67.3477 56.2305C69.3008 56.4258 71.2214 56.556 73.1094 56.6211C74.9974 56.6211 76.7552 56.6211 78.3828 56.6211C80.0104 56.556 81.3451 56.5885 82.3867 56.7188C87.5951 57.0443 92.2826 58.151 96.4492 60.0391C100.616 61.9271 104.132 64.4336 106.996 67.5586C109.926 70.6836 112.139 74.4271 113.637 78.7891C115.199 83.0859 115.98 87.8385 115.98 93.0469ZM219.008 7.69531L213.539 48.9062C211.651 48.3854 209.763 48.0273 207.875 47.832C205.987 47.6367 204.099 47.5391 202.211 47.5391C197.393 47.5391 192.803 48.1901 188.441 49.4922C184.079 50.7292 180.206 52.6497 176.82 55.2539C173.5 57.8581 170.831 61.1133 168.812 65.0195C166.859 68.9258 165.883 73.5156 165.883 78.7891C165.883 82.1745 166.404 85.1042 167.445 87.5781C168.552 90.0521 170.082 92.1029 172.035 93.7305C173.988 95.3581 176.299 96.5625 178.969 97.3438C181.638 98.125 184.568 98.5156 187.758 98.5156C190.167 98.5156 192.673 98.2552 195.277 97.7344C197.882 97.2135 200.453 96.5299 202.992 95.6836C205.531 94.8372 208.005 93.8607 210.414 92.7539C212.823 91.6471 215.036 90.5078 217.055 89.3359L213.148 135.234C210.609 136.536 207.842 137.708 204.848 138.75C201.918 139.727 198.891 140.605 195.766 141.387C192.641 142.103 189.516 142.656 186.391 143.047C183.266 143.438 180.271 143.633 177.406 143.633C169.138 143.633 161.423 142.103 154.262 139.043C147.1 135.983 140.883 131.784 135.609 126.445C130.336 121.107 126.169 114.824 123.109 107.598C120.115 100.306 118.617 92.4609 118.617 84.0625C118.617 72.9297 120.212 62.4479 123.402 52.6172C126.592 42.7214 131.28 34.0625 137.465 26.6406C143.65 19.2188 151.299 13.3594 160.414 9.0625C169.594 4.76562 180.141 2.61719 192.055 2.61719C196.547 2.61719 201.137 2.97526 205.824 3.69141C210.577 4.40755 214.971 5.74219 219.008 7.69531ZM339.613 50.8594C339.613 55.9375 339.158 60.5599 338.246 64.7266C337.4 68.8281 336.033 72.6042 334.145 76.0547C332.257 79.5052 329.815 82.6953 326.82 85.625C323.826 88.5547 320.212 91.3542 315.98 94.0234L339.223 135.43L295.277 144.023L280.238 102.422L268.129 102.812L266.371 143.438H224.379C224.704 128.594 224.997 113.815 225.258 99.1016C225.583 84.388 225.941 69.6094 226.332 54.7656C226.462 47.2786 226.592 39.8568 226.723 32.5C226.853 25.1432 227.113 17.7214 227.504 10.2344C232.061 8.54167 236.553 7.14193 240.98 6.03516C245.408 4.92839 249.835 4.08203 254.262 3.49609C258.754 2.84505 263.279 2.42188 267.836 2.22656C272.458 1.96615 277.178 1.83594 281.996 1.83594C289.418 1.83594 296.579 2.8776 303.48 4.96094C310.447 6.97917 316.599 10.0391 321.938 14.1406C327.276 18.2422 331.54 23.3529 334.73 29.4727C337.986 35.5924 339.613 42.7214 339.613 50.8594ZM295.863 53.9844C295.863 51.25 295.473 48.7435 294.691 46.4648C293.975 44.1862 292.868 42.2331 291.371 40.6055C289.939 38.9128 288.116 37.6107 285.902 36.6992C283.754 35.7227 281.215 35.2344 278.285 35.2344C276.983 35.2344 275.714 35.332 274.477 35.5273C273.24 35.6576 272.035 35.8854 270.863 36.2109L269.301 72.5391H271.645C274.444 72.5391 277.276 72.181 280.141 71.4648C283.07 70.7487 285.674 69.6419 287.953 68.1445C290.297 66.6471 292.185 64.7266 293.617 62.3828C295.115 60.0391 295.863 57.2396 295.863 53.9844ZM469.594 136.602L421.156 142.852L415.297 120.781H393.031L388.148 142.852L338.344 137.969L377.211 7.89062L431.508 5.15625L469.594 136.602ZM411.781 90.8984L404.359 56.9141L397.133 90.8984H411.781ZM585.414 51.0547C585.414 57.3698 584.47 62.9688 582.582 67.8516C580.694 72.7344 578.09 76.9987 574.77 80.6445C571.514 84.2904 567.673 87.3828 563.246 89.9219C558.819 92.4609 554.066 94.5443 548.988 96.1719C543.975 97.7344 538.767 98.9062 533.363 99.6875C527.96 100.404 522.654 100.794 517.445 100.859V146.367H471.938C471.938 131.458 471.97 116.615 472.035 101.836C472.1 87.0573 472.198 72.1484 472.328 57.1094C472.458 49.1667 472.491 41.224 472.426 33.2812C472.361 25.3385 472.523 17.3307 472.914 9.25781C481.247 6.78385 489.581 4.92839 497.914 3.69141C506.247 2.45443 514.841 1.83594 523.695 1.83594C528.708 1.83594 533.721 2.25911 538.734 3.10547C543.747 3.88672 548.533 5.15625 553.09 6.91406C557.712 8.67188 561.977 10.8854 565.883 13.5547C569.854 16.1589 573.272 19.2839 576.137 22.9297C579.001 26.5755 581.247 30.7422 582.875 35.4297C584.568 40.0521 585.414 45.2604 585.414 51.0547ZM542.055 54.375C542.055 50.1432 540.753 46.8555 538.148 44.5117C535.609 42.1029 532.289 40.8984 528.188 40.8984C526.82 40.8984 525.388 41.0286 523.891 41.2891C522.458 41.4844 521.091 41.7448 519.789 42.0703L518.617 70.5859C519.529 70.7161 520.408 70.7812 521.254 70.7812C522.1 70.7812 522.979 70.7812 523.891 70.7812C526.234 70.7812 528.48 70.3906 530.629 69.6094C532.842 68.8281 534.796 67.7214 536.488 66.2891C538.181 64.7917 539.516 63.0664 540.492 61.1133C541.534 59.0951 542.055 56.849 542.055 54.375ZM694.008 5.35156L693.031 46.7578L663.93 47.9297L656.508 140.508L615.297 142.656L615.492 50.0781L586.391 51.6406L587.562 5.54688L694.008 5.35156ZM791.859 4.17969C791.469 10.2995 791.111 16.3542 790.785 22.3438C790.46 28.3333 790.036 34.388 789.516 40.5078L748.109 42.6562L747.133 54.9609H776.234L774.086 85.2344L744.789 86.2109L743.812 100.469H768.031H785.219C784.828 107.63 784.405 114.759 783.949 121.855C783.559 128.887 783.201 135.951 782.875 143.047L698.695 145L701.82 4.17969H791.859ZM909.73 50.8594C909.73 55.9375 909.275 60.5599 908.363 64.7266C907.517 68.8281 906.15 72.6042 904.262 76.0547C902.374 79.5052 899.932 82.6953 896.938 85.625C893.943 88.5547 890.329 91.3542 886.098 94.0234L909.34 135.43L865.395 144.023L850.355 102.422L838.246 102.812L836.488 143.438H794.496C794.822 128.594 795.115 113.815 795.375 99.1016C795.701 84.388 796.059 69.6094 796.449 54.7656C796.579 47.2786 796.71 39.8568 796.84 32.5C796.97 25.1432 797.23 17.7214 797.621 10.2344C802.178 8.54167 806.671 7.14193 811.098 6.03516C815.525 4.92839 819.952 4.08203 824.379 3.49609C828.871 2.84505 833.396 2.42188 837.953 2.22656C842.576 1.96615 847.296 1.83594 852.113 1.83594C859.535 1.83594 866.697 2.8776 873.598 4.96094C880.564 6.97917 886.716 10.0391 892.055 14.1406C897.393 18.2422 901.658 23.3529 904.848 29.4727C908.103 35.5924 909.73 42.7214 909.73 50.8594ZM865.98 53.9844C865.98 51.25 865.59 48.7435 864.809 46.4648C864.092 44.1862 862.986 42.2331 861.488 40.6055C860.056 38.9128 858.233 37.6107 856.02 36.6992C853.871 35.7227 851.332 35.2344 848.402 35.2344C847.1 35.2344 845.831 35.332 844.594 35.5273C843.357 35.6576 842.152 35.8854 840.98 36.2109L839.418 72.5391H841.762C844.561 72.5391 847.393 72.181 850.258 71.4648C853.188 70.7487 855.792 69.6419 858.07 68.1445C860.414 66.6471 862.302 64.7266 863.734 62.3828C865.232 60.0391 865.98 57.2396 865.98 53.9844ZM1016.57 93.0469C1016.57 101.966 1015 109.779 1011.88 116.484C1008.82 123.125 1004.59 128.659 999.184 133.086C993.845 137.513 987.562 140.833 980.336 143.047C973.174 145.26 965.46 146.367 957.191 146.367C954.001 146.367 950.486 145.944 946.645 145.098C942.868 144.251 939.027 143.21 935.121 141.973C931.215 140.671 927.439 139.303 923.793 137.871C920.212 136.374 917.022 134.974 914.223 133.672L918.52 93.4375C924.053 96.7578 930.173 99.2969 936.879 101.055C943.65 102.747 950.29 103.594 956.801 103.594C958.038 103.594 959.535 103.561 961.293 103.496C963.051 103.366 964.711 103.073 966.273 102.617C967.901 102.096 969.268 101.348 970.375 100.371C971.482 99.3945 972.035 97.9948 972.035 96.1719C972.035 94.9349 971.645 93.8932 970.863 93.0469C970.082 92.1354 969.073 91.4193 967.836 90.8984C966.599 90.3125 965.199 89.8893 963.637 89.6289C962.074 89.3034 960.544 89.0755 959.047 88.9453C957.549 88.8151 956.15 88.75 954.848 88.75C953.546 88.75 952.504 88.75 951.723 88.75C946.124 88.75 941.013 87.7734 936.391 85.8203C931.833 83.8672 927.895 81.1654 924.574 77.7148C921.319 74.1992 918.78 70.0651 916.957 65.3125C915.134 60.4948 914.223 55.2865 914.223 49.6875C914.223 42.0052 915.753 35.1367 918.812 29.082C921.938 22.9622 926.072 17.7865 931.215 13.5547C936.423 9.25781 942.38 5.97005 949.086 3.69141C955.792 1.41276 962.725 0.273438 969.887 0.273438C973.077 0.273438 976.365 0.403646 979.75 0.664062C983.135 0.859375 986.488 1.25 989.809 1.83594C993.194 2.42188 996.482 3.17057 999.672 4.08203C1002.86 4.99349 1005.89 6.13281 1008.75 7.5L1005.04 47.1484C1000.62 45.651 995.961 44.4141 991.078 43.4375C986.26 42.3958 981.54 41.875 976.918 41.875C976.072 41.875 974.965 41.9076 973.598 41.9727C972.296 41.9727 970.896 42.0703 969.398 42.2656C967.966 42.3958 966.501 42.6237 965.004 42.9492C963.507 43.2747 962.172 43.7305 961 44.3164C959.828 44.8372 958.884 45.5534 958.168 46.4648C957.452 47.3763 957.126 48.4505 957.191 49.6875C957.257 51.1198 957.777 52.2917 958.754 53.2031C959.796 54.0495 961.098 54.7331 962.66 55.2539C964.288 55.7096 966.046 56.0352 967.934 56.2305C969.887 56.4258 971.807 56.556 973.695 56.6211C975.583 56.6211 977.341 56.6211 978.969 56.6211C980.596 56.556 981.931 56.5885 982.973 56.7188C988.181 57.0443 992.868 58.151 997.035 60.0391C1001.2 61.9271 1004.72 64.4336 1007.58 67.5586C1010.51 70.6836 1012.73 74.4271 1014.22 78.7891C1015.79 83.0859 1016.57 87.8385 1016.57 93.0469Z" fill="#EE6F2D"/>
<path d="M104.98 97.0469C104.98 105.966 103.418 113.779 100.293 120.484C97.2331 127.125 93.0013 132.659 87.5977 137.086C82.2591 141.513 75.9766 144.833 68.75 147.047C61.5885 149.26 53.8737 150.367 45.6055 150.367C42.4154 150.367 38.8997 149.944 35.0586 149.098C31.2826 148.251 27.4414 147.21 23.5352 145.973C19.6289 144.671 15.8529 143.303 12.207 141.871C8.6263 140.374 5.4362 138.974 2.63672 137.672L6.93359 97.4375C12.4674 100.758 18.5872 103.297 25.293 105.055C32.0638 106.747 38.7044 107.594 45.2148 107.594C46.4518 107.594 47.9492 107.561 49.707 107.496C51.4648 107.366 53.125 107.073 54.6875 106.617C56.3151 106.096 57.6823 105.348 58.7891 104.371C59.8958 103.395 60.4492 101.995 60.4492 100.172C60.4492 98.9349 60.0586 97.8932 59.2773 97.0469C58.4961 96.1354 57.487 95.4193 56.25 94.8984C55.013 94.3125 53.6133 93.8893 52.0508 93.6289C50.4883 93.3034 48.9583 93.0755 47.4609 92.9453C45.9635 92.8151 44.5638 92.75 43.2617 92.75C41.9596 92.75 40.918 92.75 40.1367 92.75C34.5378 92.75 29.4271 91.7734 24.8047 89.8203C20.2474 87.8672 16.3086 85.1654 12.9883 81.7148C9.73307 78.1992 7.19401 74.0651 5.37109 69.3125C3.54818 64.4948 2.63672 59.2865 2.63672 53.6875C2.63672 46.0052 4.16667 39.1367 7.22656 33.082C10.3516 26.9622 14.4857 21.7865 19.6289 17.5547C24.8372 13.2578 30.7943 9.97005 37.5 7.69141C44.2057 5.41276 51.1393 4.27344 58.3008 4.27344C61.4909 4.27344 64.7786 4.40365 68.1641 4.66406C71.5495 4.85938 74.9023 5.25 78.2227 5.83594C81.6081 6.42188 84.8958 7.17057 88.0859 8.08203C91.276 8.99349 94.3034 10.1328 97.168 11.5L93.457 51.1484C89.0299 49.651 84.375 48.4141 79.4922 47.4375C74.6745 46.3958 69.9544 45.875 65.332 45.875C64.4857 45.875 63.3789 45.9076 62.0117 45.9727C60.7096 45.9727 59.3099 46.0703 57.8125 46.2656C56.3802 46.3958 54.9154 46.6237 53.418 46.9492C51.9206 47.2747 50.5859 47.7305 49.4141 48.3164C48.2422 48.8372 47.2982 49.5534 46.582 50.4648C45.8659 51.3763 45.5404 52.4505 45.6055 53.6875C45.6706 55.1198 46.1914 56.2917 47.168 57.2031C48.2096 58.0495 49.5117 58.7331 51.0742 59.2539C52.7018 59.7096 54.4596 60.0352 56.3477 60.2305C58.3008 60.4258 60.2214 60.556 62.1094 60.6211C63.9974 60.6211 65.7552 60.6211 67.3828 60.6211C69.0104 60.556 70.3451 60.5885 71.3867 60.7188C76.5951 61.0443 81.2826 62.151 85.4492 64.0391C89.6159 65.9271 93.1315 68.4336 95.9961 71.5586C98.9258 74.6836 101.139 78.4271 102.637 82.7891C104.199 87.0859 104.98 91.8385 104.98 97.0469ZM208.008 11.6953L202.539 52.9062C200.651 52.3854 198.763 52.0273 196.875 51.832C194.987 51.6367 193.099 51.5391 191.211 51.5391C186.393 51.5391 181.803 52.1901 177.441 53.4922C173.079 54.7292 169.206 56.6497 165.82 59.2539C162.5 61.8581 159.831 65.1133 157.812 69.0195C155.859 72.9258 154.883 77.5156 154.883 82.7891C154.883 86.1745 155.404 89.1042 156.445 91.5781C157.552 94.0521 159.082 96.1029 161.035 97.7305C162.988 99.3581 165.299 100.562 167.969 101.344C170.638 102.125 173.568 102.516 176.758 102.516C179.167 102.516 181.673 102.255 184.277 101.734C186.882 101.214 189.453 100.53 191.992 99.6836C194.531 98.8372 197.005 97.8607 199.414 96.7539C201.823 95.6471 204.036 94.5078 206.055 93.3359L202.148 139.234C199.609 140.536 196.842 141.708 193.848 142.75C190.918 143.727 187.891 144.605 184.766 145.387C181.641 146.103 178.516 146.656 175.391 147.047C172.266 147.438 169.271 147.633 166.406 147.633C158.138 147.633 150.423 146.103 143.262 143.043C136.1 139.983 129.883 135.784 124.609 130.445C119.336 125.107 115.169 118.824 112.109 111.598C109.115 104.306 107.617 96.4609 107.617 88.0625C107.617 76.9297 109.212 66.4479 112.402 56.6172C115.592 46.7214 120.28 38.0625 126.465 30.6406C132.65 23.2188 140.299 17.3594 149.414 13.0625C158.594 8.76562 169.141 6.61719 181.055 6.61719C185.547 6.61719 190.137 6.97526 194.824 7.69141C199.577 8.40755 203.971 9.74219 208.008 11.6953ZM328.613 54.8594C328.613 59.9375 328.158 64.5599 327.246 68.7266C326.4 72.8281 325.033 76.6042 323.145 80.0547C321.257 83.5052 318.815 86.6953 315.82 89.625C312.826 92.5547 309.212 95.3542 304.98 98.0234L328.223 139.43L284.277 148.023L269.238 106.422L257.129 106.812L255.371 147.438H213.379C213.704 132.594 213.997 117.815 214.258 103.102C214.583 88.388 214.941 73.6094 215.332 58.7656C215.462 51.2786 215.592 43.8568 215.723 36.5C215.853 29.1432 216.113 21.7214 216.504 14.2344C221.061 12.5417 225.553 11.1419 229.98 10.0352C234.408 8.92839 238.835 8.08203 243.262 7.49609C247.754 6.84505 252.279 6.42188 256.836 6.22656C261.458 5.96615 266.178 5.83594 270.996 5.83594C278.418 5.83594 285.579 6.8776 292.48 8.96094C299.447 10.9792 305.599 14.0391 310.938 18.1406C316.276 22.2422 320.54 27.3529 323.73 33.4727C326.986 39.5924 328.613 46.7214 328.613 54.8594ZM284.863 57.9844C284.863 55.25 284.473 52.7435 283.691 50.4648C282.975 48.1862 281.868 46.2331 280.371 44.6055C278.939 42.9128 277.116 41.6107 274.902 40.6992C272.754 39.7227 270.215 39.2344 267.285 39.2344C265.983 39.2344 264.714 39.332 263.477 39.5273C262.24 39.6576 261.035 39.8854 259.863 40.2109L258.301 76.5391H260.645C263.444 76.5391 266.276 76.181 269.141 75.4648C272.07 74.7487 274.674 73.6419 276.953 72.1445C279.297 70.6471 281.185 68.7266 282.617 66.3828C284.115 64.0391 284.863 61.2396 284.863 57.9844ZM458.594 140.602L410.156 146.852L404.297 124.781H382.031L377.148 146.852L327.344 141.969L366.211 11.8906L420.508 9.15625L458.594 140.602ZM400.781 94.8984L393.359 60.9141L386.133 94.8984H400.781ZM574.414 55.0547C574.414 61.3698 573.47 66.9688 571.582 71.8516C569.694 76.7344 567.09 80.9987 563.77 84.6445C560.514 88.2904 556.673 91.3828 552.246 93.9219C547.819 96.4609 543.066 98.5443 537.988 100.172C532.975 101.734 527.767 102.906 522.363 103.688C516.96 104.404 511.654 104.794 506.445 104.859V150.367H460.938C460.938 135.458 460.97 120.615 461.035 105.836C461.1 91.0573 461.198 76.1484 461.328 61.1094C461.458 53.1667 461.491 45.224 461.426 37.2812C461.361 29.3385 461.523 21.3307 461.914 13.2578C470.247 10.7839 478.581 8.92839 486.914 7.69141C495.247 6.45443 503.841 5.83594 512.695 5.83594C517.708 5.83594 522.721 6.25911 527.734 7.10547C532.747 7.88672 537.533 9.15625 542.09 10.9141C546.712 12.6719 550.977 14.8854 554.883 17.5547C558.854 20.1589 562.272 23.2839 565.137 26.9297C568.001 30.5755 570.247 34.7422 571.875 39.4297C573.568 44.0521 574.414 49.2604 574.414 55.0547ZM531.055 58.375C531.055 54.1432 529.753 50.8555 527.148 48.5117C524.609 46.1029 521.289 44.8984 517.188 44.8984C515.82 44.8984 514.388 45.0286 512.891 45.2891C511.458 45.4844 510.091 45.7448 508.789 46.0703L507.617 74.5859C508.529 74.7161 509.408 74.7812 510.254 74.7812C511.1 74.7812 511.979 74.7812 512.891 74.7812C515.234 74.7812 517.48 74.3906 519.629 73.6094C521.842 72.8281 523.796 71.7214 525.488 70.2891C527.181 68.7917 528.516 67.0664 529.492 65.1133C530.534 63.0951 531.055 60.849 531.055 58.375ZM683.008 9.35156L682.031 50.7578L652.93 51.9297L645.508 144.508L604.297 146.656L604.492 54.0781L575.391 55.6406L576.562 9.54688L683.008 9.35156ZM780.859 8.17969C780.469 14.2995 780.111 20.3542 779.785 26.3438C779.46 32.3333 779.036 38.388 778.516 44.5078L737.109 46.6562L736.133 58.9609H765.234L763.086 89.2344L733.789 90.2109L732.812 104.469H757.031H774.219C773.828 111.63 773.405 118.759 772.949 125.855C772.559 132.887 772.201 139.951 771.875 147.047L687.695 149L690.82 8.17969H780.859ZM898.73 54.8594C898.73 59.9375 898.275 64.5599 897.363 68.7266C896.517 72.8281 895.15 76.6042 893.262 80.0547C891.374 83.5052 888.932 86.6953 885.938 89.625C882.943 92.5547 879.329 95.3542 875.098 98.0234L898.34 139.43L854.395 148.023L839.355 106.422L827.246 106.812L825.488 147.438H783.496C783.822 132.594 784.115 117.815 784.375 103.102C784.701 88.388 785.059 73.6094 785.449 58.7656C785.579 51.2786 785.71 43.8568 785.84 36.5C785.97 29.1432 786.23 21.7214 786.621 14.2344C791.178 12.5417 795.671 11.1419 800.098 10.0352C804.525 8.92839 808.952 8.08203 813.379 7.49609C817.871 6.84505 822.396 6.42188 826.953 6.22656C831.576 5.96615 836.296 5.83594 841.113 5.83594C848.535 5.83594 855.697 6.8776 862.598 8.96094C869.564 10.9792 875.716 14.0391 881.055 18.1406C886.393 22.2422 890.658 27.3529 893.848 33.4727C897.103 39.5924 898.73 46.7214 898.73 54.8594ZM854.98 57.9844C854.98 55.25 854.59 52.7435 853.809 50.4648C853.092 48.1862 851.986 46.2331 850.488 44.6055C849.056 42.9128 847.233 41.6107 845.02 40.6992C842.871 39.7227 840.332 39.2344 837.402 39.2344C836.1 39.2344 834.831 39.332 833.594 39.5273C832.357 39.6576 831.152 39.8854 829.98 40.2109L828.418 76.5391H830.762C833.561 76.5391 836.393 76.181 839.258 75.4648C842.188 74.7487 844.792 73.6419 847.07 72.1445C849.414 70.6471 851.302 68.7266 852.734 66.3828C854.232 64.0391 854.98 61.2396 854.98 57.9844ZM1005.57 97.0469C1005.57 105.966 1004 113.779 1000.88 120.484C997.819 127.125 993.587 132.659 988.184 137.086C982.845 141.513 976.562 144.833 969.336 147.047C962.174 149.26 954.46 150.367 946.191 150.367C943.001 150.367 939.486 149.944 935.645 149.098C931.868 148.251 928.027 147.21 924.121 145.973C920.215 144.671 916.439 143.303 912.793 141.871C909.212 140.374 906.022 138.974 903.223 137.672L907.52 97.4375C913.053 100.758 919.173 103.297 925.879 105.055C932.65 106.747 939.29 107.594 945.801 107.594C947.038 107.594 948.535 107.561 950.293 107.496C952.051 107.366 953.711 107.073 955.273 106.617C956.901 106.096 958.268 105.348 959.375 104.371C960.482 103.395 961.035 101.995 961.035 100.172C961.035 98.9349 960.645 97.8932 959.863 97.0469C959.082 96.1354 958.073 95.4193 956.836 94.8984C955.599 94.3125 954.199 93.8893 952.637 93.6289C951.074 93.3034 949.544 93.0755 948.047 92.9453C946.549 92.8151 945.15 92.75 943.848 92.75C942.546 92.75 941.504 92.75 940.723 92.75C935.124 92.75 930.013 91.7734 925.391 89.8203C920.833 87.8672 916.895 85.1654 913.574 81.7148C910.319 78.1992 907.78 74.0651 905.957 69.3125C904.134 64.4948 903.223 59.2865 903.223 53.6875C903.223 46.0052 904.753 39.1367 907.812 33.082C910.938 26.9622 915.072 21.7865 920.215 17.5547C925.423 13.2578 931.38 9.97005 938.086 7.69141C944.792 5.41276 951.725 4.27344 958.887 4.27344C962.077 4.27344 965.365 4.40365 968.75 4.66406C972.135 4.85938 975.488 5.25 978.809 5.83594C982.194 6.42188 985.482 7.17057 988.672 8.08203C991.862 8.99349 994.889 10.1328 997.754 11.5L994.043 51.1484C989.616 49.651 984.961 48.4141 980.078 47.4375C975.26 46.3958 970.54 45.875 965.918 45.875C965.072 45.875 963.965 45.9076 962.598 45.9727C961.296 45.9727 959.896 46.0703 958.398 46.2656C956.966 46.3958 955.501 46.6237 954.004 46.9492C952.507 47.2747 951.172 47.7305 950 48.3164C948.828 48.8372 947.884 49.5534 947.168 50.4648C946.452 51.3763 946.126 52.4505 946.191 53.6875C946.257 55.1198 946.777 56.2917 947.754 57.2031C948.796 58.0495 950.098 58.7331 951.66 59.2539C953.288 59.7096 955.046 60.0352 956.934 60.2305C958.887 60.4258 960.807 60.556 962.695 60.6211C964.583 60.6211 966.341 60.6211 967.969 60.6211C969.596 60.556 970.931 60.5885 971.973 60.7188C977.181 61.0443 981.868 62.151 986.035 64.0391C990.202 65.9271 993.717 68.4336 996.582 71.5586C999.512 74.6836 1001.73 78.4271 1003.22 82.7891C1004.79 87.0859 1005.57 91.8385 1005.57 97.0469Z" fill="white"/>
</svg>
