<svg width="1119" height="211" viewBox="0 0 1119 211" fill="none" xmlns="http://www.w3.org/2000/svg">
<path d="M113.98 93.0469C113.98 101.966 112.418 109.779 109.293 116.484C106.233 123.125 102.001 128.659 96.5977 133.086C91.2591 137.513 84.9766 140.833 77.75 143.047C70.5885 145.26 62.8737 146.367 54.6055 146.367C51.4154 146.367 47.8997 145.944 44.0586 145.098C40.2826 144.251 36.4414 143.21 32.5352 141.973C28.6289 140.671 24.8529 139.303 21.207 137.871C17.6263 136.374 14.4362 134.974 11.6367 133.672L15.9336 93.4375C21.4674 96.7578 27.5872 99.2969 34.293 101.055C41.0638 102.747 47.7044 103.594 54.2148 103.594C55.4518 103.594 56.9492 103.561 58.707 103.496C60.4648 103.366 62.125 103.073 63.6875 102.617C65.3151 102.096 66.6823 101.348 67.7891 100.371C68.8958 99.3945 69.4492 97.9948 69.4492 96.1719C69.4492 94.9349 69.0586 93.8932 68.2773 93.0469C67.4961 92.1354 66.487 91.4193 65.25 90.8984C64.013 90.3125 62.6133 89.8893 61.0508 89.6289C59.4883 89.3034 57.9583 89.0755 56.4609 88.9453C54.9635 88.8151 53.5638 88.75 52.2617 88.75C50.9596 88.75 49.918 88.75 49.1367 88.75C43.5378 88.75 38.4271 87.7734 33.8047 85.8203C29.2474 83.8672 25.3086 81.1654 21.9883 77.7148C18.7331 74.1992 16.194 70.0651 14.3711 65.3125C12.5482 60.4948 11.6367 55.2865 11.6367 49.6875C11.6367 42.0052 13.1667 35.1367 16.2266 29.082C19.3516 22.9622 23.4857 17.7865 28.6289 13.5547C33.8372 9.25781 39.7943 5.97005 46.5 3.69141C53.2057 1.41276 60.1393 0.273438 67.3008 0.273438C70.4909 0.273438 73.7786 0.403646 77.1641 0.664062C80.5495 0.859375 83.9023 1.25 87.2227 1.83594C90.6081 2.42188 93.8958 3.17057 97.0859 4.08203C100.276 4.99349 103.303 6.13281 106.168 7.5L102.457 47.1484C98.0299 45.651 93.375 44.4141 88.4922 43.4375C83.6745 42.3958 78.9544 41.875 74.332 41.875C73.4857 41.875 72.3789 41.9076 71.0117 41.9727C69.7096 41.9727 68.3099 42.0703 66.8125 42.2656C65.3802 42.3958 63.9154 42.6237 62.418 42.9492C60.9206 43.2747 59.5859 43.7305 58.4141 44.3164C57.2422 44.8372 56.2982 45.5534 55.582 46.4648C54.8659 47.3763 54.5404 48.4505 54.6055 49.6875C54.6706 51.1198 55.1914 52.2917 56.168 53.2031C57.2096 54.0495 58.5117 54.7331 60.0742 55.2539C61.7018 55.7096 63.4596 56.0352 65.3477 56.2305C67.3008 56.4258 69.2214 56.556 71.1094 56.6211C72.9974 56.6211 74.7552 56.6211 76.3828 56.6211C78.0104 56.556 79.3451 56.5885 80.3867 56.7188C85.5951 57.0443 90.2826 58.151 94.4492 60.0391C98.6159 61.9271 102.132 64.4336 104.996 67.5586C107.926 70.6836 110.139 74.4271 111.637 78.7891C113.199 83.0859 113.98 87.8385 113.98 93.0469ZM217.008 7.69531L211.539 48.9062C209.651 48.3854 207.763 48.0273 205.875 47.832C203.987 47.6367 202.099 47.5391 200.211 47.5391C195.393 47.5391 190.803 48.1901 186.441 49.4922C182.079 50.7292 178.206 52.6497 174.82 55.2539C171.5 57.8581 168.831 61.1133 166.812 65.0195C164.859 68.9258 163.883 73.5156 163.883 78.7891C163.883 82.1745 164.404 85.1042 165.445 87.5781C166.552 90.0521 168.082 92.1029 170.035 93.7305C171.988 95.3581 174.299 96.5625 176.969 97.3438C179.638 98.125 182.568 98.5156 185.758 98.5156C188.167 98.5156 190.673 98.2552 193.277 97.7344C195.882 97.2135 198.453 96.5299 200.992 95.6836C203.531 94.8372 206.005 93.8607 208.414 92.7539C210.823 91.6471 213.036 90.5078 215.055 89.3359L211.148 135.234C208.609 136.536 205.842 137.708 202.848 138.75C199.918 139.727 196.891 140.605 193.766 141.387C190.641 142.103 187.516 142.656 184.391 143.047C181.266 143.438 178.271 143.633 175.406 143.633C167.138 143.633 159.423 142.103 152.262 139.043C145.1 135.983 138.883 131.784 133.609 126.445C128.336 121.107 124.169 114.824 121.109 107.598C118.115 100.306 116.617 92.4609 116.617 84.0625C116.617 72.9297 118.212 62.4479 121.402 52.6172C124.592 42.7214 129.28 34.0625 135.465 26.6406C141.65 19.2188 149.299 13.3594 158.414 9.0625C167.594 4.76562 178.141 2.61719 190.055 2.61719C194.547 2.61719 199.137 2.97526 203.824 3.69141C208.577 4.40755 212.971 5.74219 217.008 7.69531ZM337.613 50.8594C337.613 55.9375 337.158 60.5599 336.246 64.7266C335.4 68.8281 334.033 72.6042 332.145 76.0547C330.257 79.5052 327.815 82.6953 324.82 85.625C321.826 88.5547 318.212 91.3542 313.98 94.0234L337.223 135.43L293.277 144.023L278.238 102.422L266.129 102.812L264.371 143.438H222.379C222.704 128.594 222.997 113.815 223.258 99.1016C223.583 84.388 223.941 69.6094 224.332 54.7656C224.462 47.2786 224.592 39.8568 224.723 32.5C224.853 25.1432 225.113 17.7214 225.504 10.2344C230.061 8.54167 234.553 7.14193 238.98 6.03516C243.408 4.92839 247.835 4.08203 252.262 3.49609C256.754 2.84505 261.279 2.42188 265.836 2.22656C270.458 1.96615 275.178 1.83594 279.996 1.83594C287.418 1.83594 294.579 2.8776 301.48 4.96094C308.447 6.97917 314.599 10.0391 319.938 14.1406C325.276 18.2422 329.54 23.3529 332.73 29.4727C335.986 35.5924 337.613 42.7214 337.613 50.8594ZM293.863 53.9844C293.863 51.25 293.473 48.7435 292.691 46.4648C291.975 44.1862 290.868 42.2331 289.371 40.6055C287.939 38.9128 286.116 37.6107 283.902 36.6992C281.754 35.7227 279.215 35.2344 276.285 35.2344C274.983 35.2344 273.714 35.332 272.477 35.5273C271.24 35.6576 270.035 35.8854 268.863 36.2109L267.301 72.5391H269.645C272.444 72.5391 275.276 72.181 278.141 71.4648C281.07 70.7487 283.674 69.6419 285.953 68.1445C288.297 66.6471 290.185 64.7266 291.617 62.3828C293.115 60.0391 293.863 57.2396 293.863 53.9844ZM467.594 136.602L419.156 142.852L413.297 120.781H391.031L386.148 142.852L336.344 137.969L375.211 7.89062L429.508 5.15625L467.594 136.602ZM409.781 90.8984L402.359 56.9141L395.133 90.8984H409.781ZM583.414 51.0547C583.414 57.3698 582.47 62.9688 580.582 67.8516C578.694 72.7344 576.09 76.9987 572.77 80.6445C569.514 84.2904 565.673 87.3828 561.246 89.9219C556.819 92.4609 552.066 94.5443 546.988 96.1719C541.975 97.7344 536.767 98.9062 531.363 99.6875C525.96 100.404 520.654 100.794 515.445 100.859V146.367H469.938C469.938 131.458 469.97 116.615 470.035 101.836C470.1 87.0573 470.198 72.1484 470.328 57.1094C470.458 49.1667 470.491 41.224 470.426 33.2812C470.361 25.3385 470.523 17.3307 470.914 9.25781C479.247 6.78385 487.581 4.92839 495.914 3.69141C504.247 2.45443 512.841 1.83594 521.695 1.83594C526.708 1.83594 531.721 2.25911 536.734 3.10547C541.747 3.88672 546.533 5.15625 551.09 6.91406C555.712 8.67188 559.977 10.8854 563.883 13.5547C567.854 16.1589 571.272 19.2839 574.137 22.9297C577.001 26.5755 579.247 30.7422 580.875 35.4297C582.568 40.0521 583.414 45.2604 583.414 51.0547ZM540.055 54.375C540.055 50.1432 538.753 46.8555 536.148 44.5117C533.609 42.1029 530.289 40.8984 526.188 40.8984C524.82 40.8984 523.388 41.0286 521.891 41.2891C520.458 41.4844 519.091 41.7448 517.789 42.0703L516.617 70.5859C517.529 70.7161 518.408 70.7812 519.254 70.7812C520.1 70.7812 520.979 70.7812 521.891 70.7812C524.234 70.7812 526.48 70.3906 528.629 69.6094C530.842 68.8281 532.796 67.7214 534.488 66.2891C536.181 64.7917 537.516 63.0664 538.492 61.1133C539.534 59.0951 540.055 56.849 540.055 54.375ZM688.883 95C688.883 103.919 687.32 111.634 684.195 118.145C681.135 124.59 676.904 129.928 671.5 134.16C666.161 138.327 659.879 141.419 652.652 143.438C645.491 145.391 637.776 146.367 629.508 146.367C626.318 146.367 622.802 145.944 618.961 145.098C615.185 144.251 611.344 143.21 607.438 141.973C603.531 140.671 599.755 139.303 596.109 137.871C592.529 136.374 589.339 134.974 586.539 133.672L590.836 95.3906C596.37 98.7109 602.49 101.25 609.195 103.008C615.966 104.701 622.607 105.547 629.117 105.547C630.354 105.547 631.852 105.514 633.609 105.449C635.367 105.319 637.027 105.026 638.59 104.57C640.217 104.049 641.585 103.301 642.691 102.324C643.798 101.348 644.352 99.9479 644.352 98.125C644.352 96.888 643.961 95.8464 643.18 95C642.398 94.0885 641.389 93.3724 640.152 92.8516C638.915 92.2656 637.516 91.8424 635.953 91.582C634.391 91.2565 632.861 91.0286 631.363 90.8984C629.866 90.7682 628.466 90.7031 627.164 90.7031C625.862 90.7031 624.82 90.7031 624.039 90.7031C618.44 90.7031 613.329 89.8242 608.707 88.0664C604.15 86.3086 600.211 83.8346 596.891 80.6445C593.635 77.3893 591.096 73.4831 589.273 68.9258C587.451 64.3034 586.539 59.1927 586.539 53.5938C586.539 45.9115 588.069 39.043 591.129 32.9883C594.254 26.8685 598.388 21.6927 603.531 17.4609C608.74 13.1641 614.697 9.8763 621.402 7.59766C628.108 5.31901 635.042 4.17969 642.203 4.17969C645.393 4.17969 648.681 4.3099 652.066 4.57031C655.452 4.76562 658.805 5.15625 662.125 5.74219C665.51 6.32812 668.798 7.07682 671.988 7.98828C675.178 8.89974 678.206 10.0391 681.07 11.4062L677.359 51.0547C672.932 49.5573 668.277 48.3203 663.395 47.3438C658.577 46.3021 653.857 45.7812 649.234 45.7812C648.388 45.7812 647.281 45.8138 645.914 45.8789C644.612 45.8789 643.212 45.9766 641.715 46.1719C640.283 46.3021 638.818 46.5299 637.32 46.8555C635.823 47.181 634.488 47.6367 633.316 48.2227C632.145 48.7435 631.201 49.4596 630.484 50.3711C629.768 51.2826 629.443 52.3568 629.508 53.5938C629.573 55.026 630.094 56.1328 631.07 56.9141C632.112 57.6953 633.414 58.2812 634.977 58.6719C636.604 58.9974 638.362 59.1602 640.25 59.1602C642.203 59.1602 644.124 59.1276 646.012 59.0625C647.9 58.9323 649.658 58.8346 651.285 58.7695C652.913 58.6393 654.247 58.6068 655.289 58.6719C660.497 58.9974 665.185 60.1042 669.352 61.9922C673.518 63.8802 677.034 66.3867 679.898 69.5117C682.828 72.6367 685.042 76.3802 686.539 80.7422C688.102 85.0391 688.883 89.7917 688.883 95ZM796.305 5.35156L795.328 46.7578L766.227 47.9297L758.805 140.508L717.594 142.656L717.789 50.0781L688.688 51.6406L689.859 5.54688L796.305 5.35156ZM894.156 4.17969C893.766 10.2995 893.408 16.3542 893.082 22.3438C892.757 28.3333 892.333 34.388 891.812 40.5078L850.406 42.6562L849.43 54.9609H878.531L876.383 85.2344L847.086 86.2109L846.109 100.469H870.328H887.516C887.125 107.63 886.702 114.759 886.246 121.855C885.855 128.887 885.497 135.951 885.172 143.047L800.992 145L804.117 4.17969H894.156ZM1012.03 50.8594C1012.03 55.9375 1011.57 60.5599 1010.66 64.7266C1009.81 68.8281 1008.45 72.6042 1006.56 76.0547C1004.67 79.5052 1002.23 82.6953 999.234 85.625C996.24 88.5547 992.626 91.3542 988.395 94.0234L1011.64 135.43L967.691 144.023L952.652 102.422L940.543 102.812L938.785 143.438H896.793C897.118 128.594 897.411 113.815 897.672 99.1016C897.997 84.388 898.355 69.6094 898.746 54.7656C898.876 47.2786 899.007 39.8568 899.137 32.5C899.267 25.1432 899.527 17.7214 899.918 10.2344C904.475 8.54167 908.967 7.14193 913.395 6.03516C917.822 4.92839 922.249 4.08203 926.676 3.49609C931.168 2.84505 935.693 2.42188 940.25 2.22656C944.872 1.96615 949.592 1.83594 954.41 1.83594C961.832 1.83594 968.993 2.8776 975.895 4.96094C982.861 6.97917 989.013 10.0391 994.352 14.1406C999.69 18.2422 1003.95 23.3529 1007.14 29.4727C1010.4 35.5924 1012.03 42.7214 1012.03 50.8594ZM968.277 53.9844C968.277 51.25 967.887 48.7435 967.105 46.4648C966.389 44.1862 965.283 42.2331 963.785 40.6055C962.353 38.9128 960.53 37.6107 958.316 36.6992C956.168 35.7227 953.629 35.2344 950.699 35.2344C949.397 35.2344 948.128 35.332 946.891 35.5273C945.654 35.6576 944.449 35.8854 943.277 36.2109L941.715 72.5391H944.059C946.858 72.5391 949.69 72.181 952.555 71.4648C955.484 70.7487 958.089 69.6419 960.367 68.1445C962.711 66.6471 964.599 64.7266 966.031 62.3828C967.529 60.0391 968.277 57.2396 968.277 53.9844ZM1118.86 93.0469C1118.86 101.966 1117.3 109.779 1114.18 116.484C1111.12 123.125 1106.88 128.659 1101.48 133.086C1096.14 137.513 1089.86 140.833 1082.63 143.047C1075.47 145.26 1067.76 146.367 1059.49 146.367C1056.3 146.367 1052.78 145.944 1048.94 145.098C1045.17 144.251 1041.32 143.21 1037.42 141.973C1033.51 140.671 1029.74 139.303 1026.09 137.871C1022.51 136.374 1019.32 134.974 1016.52 133.672L1020.82 93.4375C1026.35 96.7578 1032.47 99.2969 1039.18 101.055C1045.95 102.747 1052.59 103.594 1059.1 103.594C1060.33 103.594 1061.83 103.561 1063.59 103.496C1065.35 103.366 1067.01 103.073 1068.57 102.617C1070.2 102.096 1071.57 101.348 1072.67 100.371C1073.78 99.3945 1074.33 97.9948 1074.33 96.1719C1074.33 94.9349 1073.94 93.8932 1073.16 93.0469C1072.38 92.1354 1071.37 91.4193 1070.13 90.8984C1068.9 90.3125 1067.5 89.8893 1065.93 89.6289C1064.37 89.3034 1062.84 89.0755 1061.34 88.9453C1059.85 88.8151 1058.45 88.75 1057.14 88.75C1055.84 88.75 1054.8 88.75 1054.02 88.75C1048.42 88.75 1043.31 87.7734 1038.69 85.8203C1034.13 83.8672 1030.19 81.1654 1026.87 77.7148C1023.62 74.1992 1021.08 70.0651 1019.25 65.3125C1017.43 60.4948 1016.52 55.2865 1016.52 49.6875C1016.52 42.0052 1018.05 35.1367 1021.11 29.082C1024.23 22.9622 1028.37 17.7865 1033.51 13.5547C1038.72 9.25781 1044.68 5.97005 1051.38 3.69141C1058.09 1.41276 1065.02 0.273438 1072.18 0.273438C1075.37 0.273438 1078.66 0.403646 1082.05 0.664062C1085.43 0.859375 1088.79 1.25 1092.11 1.83594C1095.49 2.42188 1098.78 3.17057 1101.97 4.08203C1105.16 4.99349 1108.19 6.13281 1111.05 7.5L1107.34 47.1484C1102.91 45.651 1098.26 44.4141 1093.38 43.4375C1088.56 42.3958 1083.84 41.875 1079.21 41.875C1078.37 41.875 1077.26 41.9076 1075.89 41.9727C1074.59 41.9727 1073.19 42.0703 1071.7 42.2656C1070.26 42.3958 1068.8 42.6237 1067.3 42.9492C1065.8 43.2747 1064.47 43.7305 1063.3 44.3164C1062.12 44.8372 1061.18 45.5534 1060.46 46.4648C1059.75 47.3763 1059.42 48.4505 1059.49 49.6875C1059.55 51.1198 1060.07 52.2917 1061.05 53.2031C1062.09 54.0495 1063.39 54.7331 1064.96 55.2539C1066.58 55.7096 1068.34 56.0352 1070.23 56.2305C1072.18 56.4258 1074.1 56.556 1075.99 56.6211C1077.88 56.6211 1079.64 56.6211 1081.27 56.6211C1082.89 56.556 1084.23 56.5885 1085.27 56.7188C1090.48 57.0443 1095.17 58.151 1099.33 60.0391C1103.5 61.9271 1107.01 64.4336 1109.88 67.5586C1112.81 70.6836 1115.02 74.4271 1116.52 78.7891C1118.08 83.0859 1118.86 87.8385 1118.86 93.0469Z" fill="#EE6F2D"/>
<path d="M102.98 96.0469C102.98 104.966 101.418 112.779 98.293 119.484C95.2331 126.125 91.0013 131.659 85.5977 136.086C80.2591 140.513 73.9766 143.833 66.75 146.047C59.5885 148.26 51.8737 149.367 43.6055 149.367C40.4154 149.367 36.8997 148.944 33.0586 148.098C29.2826 147.251 25.4414 146.21 21.5352 144.973C17.6289 143.671 13.8529 142.303 10.207 140.871C6.6263 139.374 3.4362 137.974 0.636719 136.672L4.93359 96.4375C10.4674 99.7578 16.5872 102.297 23.293 104.055C30.0638 105.747 36.7044 106.594 43.2148 106.594C44.4518 106.594 45.9492 106.561 47.707 106.496C49.4648 106.366 51.125 106.073 52.6875 105.617C54.3151 105.096 55.6823 104.348 56.7891 103.371C57.8958 102.395 58.4492 100.995 58.4492 99.1719C58.4492 97.9349 58.0586 96.8932 57.2773 96.0469C56.4961 95.1354 55.487 94.4193 54.25 93.8984C53.013 93.3125 51.6133 92.8893 50.0508 92.6289C48.4883 92.3034 46.9583 92.0755 45.4609 91.9453C43.9635 91.8151 42.5638 91.75 41.2617 91.75C39.9596 91.75 38.918 91.75 38.1367 91.75C32.5378 91.75 27.4271 90.7734 22.8047 88.8203C18.2474 86.8672 14.3086 84.1654 10.9883 80.7148C7.73307 77.1992 5.19401 73.0651 3.37109 68.3125C1.54818 63.4948 0.636719 58.2865 0.636719 52.6875C0.636719 45.0052 2.16667 38.1367 5.22656 32.082C8.35156 25.9622 12.4857 20.7865 17.6289 16.5547C22.8372 12.2578 28.7943 8.97005 35.5 6.69141C42.2057 4.41276 49.1393 3.27344 56.3008 3.27344C59.4909 3.27344 62.7786 3.40365 66.1641 3.66406C69.5495 3.85938 72.9023 4.25 76.2227 4.83594C79.6081 5.42188 82.8958 6.17057 86.0859 7.08203C89.276 7.99349 92.3034 9.13281 95.168 10.5L91.457 50.1484C87.0299 48.651 82.375 47.4141 77.4922 46.4375C72.6745 45.3958 67.9544 44.875 63.332 44.875C62.4857 44.875 61.3789 44.9076 60.0117 44.9727C58.7096 44.9727 57.3099 45.0703 55.8125 45.2656C54.3802 45.3958 52.9154 45.6237 51.418 45.9492C49.9206 46.2747 48.5859 46.7305 47.4141 47.3164C46.2422 47.8372 45.2982 48.5534 44.582 49.4648C43.8659 50.3763 43.5404 51.4505 43.6055 52.6875C43.6706 54.1198 44.1914 55.2917 45.168 56.2031C46.2096 57.0495 47.5117 57.7331 49.0742 58.2539C50.7018 58.7096 52.4596 59.0352 54.3477 59.2305C56.3008 59.4258 58.2214 59.556 60.1094 59.6211C61.9974 59.6211 63.7552 59.6211 65.3828 59.6211C67.0104 59.556 68.3451 59.5885 69.3867 59.7188C74.5951 60.0443 79.2826 61.151 83.4492 63.0391C87.6159 64.9271 91.1315 67.4336 93.9961 70.5586C96.9258 73.6836 99.1393 77.4271 100.637 81.7891C102.199 86.0859 102.98 90.8385 102.98 96.0469ZM206.008 10.6953L200.539 51.9062C198.651 51.3854 196.763 51.0273 194.875 50.832C192.987 50.6367 191.099 50.5391 189.211 50.5391C184.393 50.5391 179.803 51.1901 175.441 52.4922C171.079 53.7292 167.206 55.6497 163.82 58.2539C160.5 60.8581 157.831 64.1133 155.812 68.0195C153.859 71.9258 152.883 76.5156 152.883 81.7891C152.883 85.1745 153.404 88.1042 154.445 90.5781C155.552 93.0521 157.082 95.1029 159.035 96.7305C160.988 98.3581 163.299 99.5625 165.969 100.344C168.638 101.125 171.568 101.516 174.758 101.516C177.167 101.516 179.673 101.255 182.277 100.734C184.882 100.214 187.453 99.5299 189.992 98.6836C192.531 97.8372 195.005 96.8607 197.414 95.7539C199.823 94.6471 202.036 93.5078 204.055 92.3359L200.148 138.234C197.609 139.536 194.842 140.708 191.848 141.75C188.918 142.727 185.891 143.605 182.766 144.387C179.641 145.103 176.516 145.656 173.391 146.047C170.266 146.438 167.271 146.633 164.406 146.633C156.138 146.633 148.423 145.103 141.262 142.043C134.1 138.983 127.883 134.784 122.609 129.445C117.336 124.107 113.169 117.824 110.109 110.598C107.115 103.306 105.617 95.4609 105.617 87.0625C105.617 75.9297 107.212 65.4479 110.402 55.6172C113.592 45.7214 118.28 37.0625 124.465 29.6406C130.65 22.2188 138.299 16.3594 147.414 12.0625C156.594 7.76562 167.141 5.61719 179.055 5.61719C183.547 5.61719 188.137 5.97526 192.824 6.69141C197.577 7.40755 201.971 8.74219 206.008 10.6953ZM326.613 53.8594C326.613 58.9375 326.158 63.5599 325.246 67.7266C324.4 71.8281 323.033 75.6042 321.145 79.0547C319.257 82.5052 316.815 85.6953 313.82 88.625C310.826 91.5547 307.212 94.3542 302.98 97.0234L326.223 138.43L282.277 147.023L267.238 105.422L255.129 105.812L253.371 146.438H211.379C211.704 131.594 211.997 116.815 212.258 102.102C212.583 87.388 212.941 72.6094 213.332 57.7656C213.462 50.2786 213.592 42.8568 213.723 35.5C213.853 28.1432 214.113 20.7214 214.504 13.2344C219.061 11.5417 223.553 10.1419 227.98 9.03516C232.408 7.92839 236.835 7.08203 241.262 6.49609C245.754 5.84505 250.279 5.42188 254.836 5.22656C259.458 4.96615 264.178 4.83594 268.996 4.83594C276.418 4.83594 283.579 5.8776 290.48 7.96094C297.447 9.97917 303.599 13.0391 308.938 17.1406C314.276 21.2422 318.54 26.3529 321.73 32.4727C324.986 38.5924 326.613 45.7214 326.613 53.8594ZM282.863 56.9844C282.863 54.25 282.473 51.7435 281.691 49.4648C280.975 47.1862 279.868 45.2331 278.371 43.6055C276.939 41.9128 275.116 40.6107 272.902 39.6992C270.754 38.7227 268.215 38.2344 265.285 38.2344C263.983 38.2344 262.714 38.332 261.477 38.5273C260.24 38.6576 259.035 38.8854 257.863 39.2109L256.301 75.5391H258.645C261.444 75.5391 264.276 75.181 267.141 74.4648C270.07 73.7487 272.674 72.6419 274.953 71.1445C277.297 69.6471 279.185 67.7266 280.617 65.3828C282.115 63.0391 282.863 60.2396 282.863 56.9844ZM456.594 139.602L408.156 145.852L402.297 123.781H380.031L375.148 145.852L325.344 140.969L364.211 10.8906L418.508 8.15625L456.594 139.602ZM398.781 93.8984L391.359 59.9141L384.133 93.8984H398.781ZM572.414 54.0547C572.414 60.3698 571.47 65.9688 569.582 70.8516C567.694 75.7344 565.09 79.9987 561.77 83.6445C558.514 87.2904 554.673 90.3828 550.246 92.9219C545.819 95.4609 541.066 97.5443 535.988 99.1719C530.975 100.734 525.767 101.906 520.363 102.688C514.96 103.404 509.654 103.794 504.445 103.859V149.367H458.938C458.938 134.458 458.97 119.615 459.035 104.836C459.1 90.0573 459.198 75.1484 459.328 60.1094C459.458 52.1667 459.491 44.224 459.426 36.2812C459.361 28.3385 459.523 20.3307 459.914 12.2578C468.247 9.78385 476.581 7.92839 484.914 6.69141C493.247 5.45443 501.841 4.83594 510.695 4.83594C515.708 4.83594 520.721 5.25911 525.734 6.10547C530.747 6.88672 535.533 8.15625 540.09 9.91406C544.712 11.6719 548.977 13.8854 552.883 16.5547C556.854 19.1589 560.272 22.2839 563.137 25.9297C566.001 29.5755 568.247 33.7422 569.875 38.4297C571.568 43.0521 572.414 48.2604 572.414 54.0547ZM529.055 57.375C529.055 53.1432 527.753 49.8555 525.148 47.5117C522.609 45.1029 519.289 43.8984 515.188 43.8984C513.82 43.8984 512.388 44.0286 510.891 44.2891C509.458 44.4844 508.091 44.7448 506.789 45.0703L505.617 73.5859C506.529 73.7161 507.408 73.7812 508.254 73.7812C509.1 73.7812 509.979 73.7812 510.891 73.7812C513.234 73.7812 515.48 73.3906 517.629 72.6094C519.842 71.8281 521.796 70.7214 523.488 69.2891C525.181 67.7917 526.516 66.0664 527.492 64.1133C528.534 62.0951 529.055 59.849 529.055 57.375ZM677.785 96.0469C677.785 104.966 676.223 112.779 673.098 119.484C670.038 126.125 665.806 131.659 660.402 136.086C655.064 140.513 648.781 143.833 641.555 146.047C634.393 148.26 626.678 149.367 618.41 149.367C615.22 149.367 611.704 148.944 607.863 148.098C604.087 147.251 600.246 146.21 596.34 144.973C592.434 143.671 588.658 142.303 585.012 140.871C581.431 139.374 578.241 137.974 575.441 136.672L579.738 96.4375C585.272 99.7578 591.392 102.297 598.098 104.055C604.868 105.747 611.509 106.594 618.02 106.594C619.257 106.594 620.754 106.561 622.512 106.496C624.27 106.366 625.93 106.073 627.492 105.617C629.12 105.096 630.487 104.348 631.594 103.371C632.701 102.395 633.254 100.995 633.254 99.1719C633.254 97.9349 632.863 96.8932 632.082 96.0469C631.301 95.1354 630.292 94.4193 629.055 93.8984C627.818 93.3125 626.418 92.8893 624.855 92.6289C623.293 92.3034 621.763 92.0755 620.266 91.9453C618.768 91.8151 617.368 91.75 616.066 91.75C614.764 91.75 613.723 91.75 612.941 91.75C607.342 91.75 602.232 90.7734 597.609 88.8203C593.052 86.8672 589.113 84.1654 585.793 80.7148C582.538 77.1992 579.999 73.0651 578.176 68.3125C576.353 63.4948 575.441 58.2865 575.441 52.6875C575.441 45.0052 576.971 38.1367 580.031 32.082C583.156 25.9622 587.29 20.7865 592.434 16.5547C597.642 12.2578 603.599 8.97005 610.305 6.69141C617.01 4.41276 623.944 3.27344 631.105 3.27344C634.296 3.27344 637.583 3.40365 640.969 3.66406C644.354 3.85938 647.707 4.25 651.027 4.83594C654.413 5.42188 657.701 6.17057 660.891 7.08203C664.081 7.99349 667.108 9.13281 669.973 10.5L666.262 50.1484C661.835 48.651 657.18 47.4141 652.297 46.4375C647.479 45.3958 642.759 44.875 638.137 44.875C637.29 44.875 636.184 44.9076 634.816 44.9727C633.514 44.9727 632.115 45.0703 630.617 45.2656C629.185 45.3958 627.72 45.6237 626.223 45.9492C624.725 46.2747 623.391 46.7305 622.219 47.3164C621.047 47.8372 620.103 48.5534 619.387 49.4648C618.671 50.3763 618.345 51.4505 618.41 52.6875C618.475 54.1198 618.996 55.2917 619.973 56.2031C621.014 57.0495 622.316 57.7331 623.879 58.2539C625.507 58.7096 627.264 59.0352 629.152 59.2305C631.105 59.4258 633.026 59.556 634.914 59.6211C636.802 59.6211 638.56 59.6211 640.188 59.6211C641.815 59.556 643.15 59.5885 644.191 59.7188C649.4 60.0443 654.087 61.151 658.254 63.0391C662.421 64.9271 665.936 67.4336 668.801 70.5586C671.73 73.6836 673.944 77.4271 675.441 81.7891C677.004 86.0859 677.785 90.8385 677.785 96.0469ZM784.914 8.35156L783.938 49.7578L754.836 50.9297L747.414 143.508L706.203 145.656L706.398 53.0781L677.297 54.6406L678.469 8.54688L784.914 8.35156ZM882.766 7.17969C882.375 13.2995 882.017 19.3542 881.691 25.3438C881.366 31.3333 880.943 37.388 880.422 43.5078L839.016 45.6562L838.039 57.9609H867.141L864.992 88.2344L835.695 89.2109L834.719 103.469H858.938H876.125C875.734 110.63 875.311 117.759 874.855 124.855C874.465 131.887 874.107 138.951 873.781 146.047L789.602 148L792.727 7.17969H882.766ZM1000.64 53.8594C1000.64 58.9375 1000.18 63.5599 999.27 67.7266C998.423 71.8281 997.056 75.6042 995.168 79.0547C993.28 82.5052 990.839 85.6953 987.844 88.625C984.849 91.5547 981.236 94.3542 977.004 97.0234L1000.25 138.43L956.301 147.023L941.262 105.422L929.152 105.812L927.395 146.438H885.402C885.728 131.594 886.021 116.815 886.281 102.102C886.607 87.388 886.965 72.6094 887.355 57.7656C887.486 50.2786 887.616 42.8568 887.746 35.5C887.876 28.1432 888.137 20.7214 888.527 13.2344C893.085 11.5417 897.577 10.1419 902.004 9.03516C906.431 7.92839 910.858 7.08203 915.285 6.49609C919.777 5.84505 924.302 5.42188 928.859 5.22656C933.482 4.96615 938.202 4.83594 943.02 4.83594C950.441 4.83594 957.603 5.8776 964.504 7.96094C971.47 9.97917 977.622 13.0391 982.961 17.1406C988.299 21.2422 992.564 26.3529 995.754 32.4727C999.009 38.5924 1000.64 45.7214 1000.64 53.8594ZM956.887 56.9844C956.887 54.25 956.496 51.7435 955.715 49.4648C954.999 47.1862 953.892 45.2331 952.395 43.6055C950.962 41.9128 949.139 40.6107 946.926 39.6992C944.777 38.7227 942.238 38.2344 939.309 38.2344C938.007 38.2344 936.737 38.332 935.5 38.5273C934.263 38.6576 933.059 38.8854 931.887 39.2109L930.324 75.5391H932.668C935.467 75.5391 938.299 75.181 941.164 74.4648C944.094 73.7487 946.698 72.6419 948.977 71.1445C951.32 69.6471 953.208 67.7266 954.641 65.3828C956.138 63.0391 956.887 60.2396 956.887 56.9844ZM1107.47 96.0469C1107.47 104.966 1105.91 112.779 1102.79 119.484C1099.73 126.125 1095.49 131.659 1090.09 136.086C1084.75 140.513 1078.47 143.833 1071.24 146.047C1064.08 148.26 1056.37 149.367 1048.1 149.367C1044.91 149.367 1041.39 148.944 1037.55 148.098C1033.77 147.251 1029.93 146.21 1026.03 144.973C1022.12 143.671 1018.35 142.303 1014.7 140.871C1011.12 139.374 1007.93 137.974 1005.13 136.672L1009.43 96.4375C1014.96 99.7578 1021.08 102.297 1027.79 104.055C1034.56 105.747 1041.2 106.594 1047.71 106.594C1048.94 106.594 1050.44 106.561 1052.2 106.496C1053.96 106.366 1055.62 106.073 1057.18 105.617C1058.81 105.096 1060.17 104.348 1061.28 103.371C1062.39 102.395 1062.94 100.995 1062.94 99.1719C1062.94 97.9349 1062.55 96.8932 1061.77 96.0469C1060.99 95.1354 1059.98 94.4193 1058.74 93.8984C1057.51 93.3125 1056.11 92.8893 1054.54 92.6289C1052.98 92.3034 1051.45 92.0755 1049.95 91.9453C1048.46 91.8151 1047.06 91.75 1045.75 91.75C1044.45 91.75 1043.41 91.75 1042.63 91.75C1037.03 91.75 1031.92 90.7734 1027.3 88.8203C1022.74 86.8672 1018.8 84.1654 1015.48 80.7148C1012.23 77.1992 1009.69 73.0651 1007.86 68.3125C1006.04 63.4948 1005.13 58.2865 1005.13 52.6875C1005.13 45.0052 1006.66 38.1367 1009.72 32.082C1012.84 25.9622 1016.98 20.7865 1022.12 16.5547C1027.33 12.2578 1033.29 8.97005 1039.99 6.69141C1046.7 4.41276 1053.63 3.27344 1060.79 3.27344C1063.98 3.27344 1067.27 3.40365 1070.66 3.66406C1074.04 3.85938 1077.39 4.25 1080.71 4.83594C1084.1 5.42188 1087.39 6.17057 1090.58 7.08203C1093.77 7.99349 1096.8 9.13281 1099.66 10.5L1095.95 50.1484C1091.52 48.651 1086.87 47.4141 1081.98 46.4375C1077.17 45.3958 1072.45 44.875 1067.82 44.875C1066.98 44.875 1065.87 44.9076 1064.5 44.9727C1063.2 44.9727 1061.8 45.0703 1060.3 45.2656C1058.87 45.3958 1057.41 45.6237 1055.91 45.9492C1054.41 46.2747 1053.08 46.7305 1051.91 47.3164C1050.73 47.8372 1049.79 48.5534 1049.07 49.4648C1048.36 50.3763 1048.03 51.4505 1048.1 52.6875C1048.16 54.1198 1048.68 55.2917 1049.66 56.2031C1050.7 57.0495 1052 57.7331 1053.57 58.2539C1055.19 58.7096 1056.95 59.0352 1058.84 59.2305C1060.79 59.4258 1062.71 59.556 1064.6 59.6211C1066.49 59.6211 1068.25 59.6211 1069.88 59.6211C1071.5 59.556 1072.84 59.5885 1073.88 59.7188C1079.09 60.0443 1083.77 61.151 1087.94 63.0391C1092.11 64.9271 1095.62 67.4336 1098.49 70.5586C1101.42 73.6836 1103.63 77.4271 1105.13 81.7891C1106.69 86.0859 1107.47 90.8385 1107.47 96.0469Z" fill="white"/>
</svg>
